<?xml version="1.0" encoding="UTF-8" standalone="no"?>
<!-- Created with Inkscape (http://www.inkscape.org/) -->

<svg
   width="32mm"
   height="24mm"
   viewBox="0 0 32 24"
   version="1.1"
   id="svg23552"
   inkscape:version="1.2.1 (9c6d41e, 2022-07-14)"
   sodipodi:docname="export.svg"
   inkscape:export-filename="c.png"
   inkscape:export-xdpi="67.73333"
   inkscape:export-ydpi="67.73333"
   xml:space="preserve"
   xmlns:inkscape="http://www.inkscape.org/namespaces/inkscape"
   xmlns:sodipodi="http://sodipodi.sourceforge.net/DTD/sodipodi-0.dtd"
   xmlns="http://www.w3.org/2000/svg"
   xmlns:svg="http://www.w3.org/2000/svg"><sodipodi:namedview
     id="namedview23554"
     pagecolor="#ffffff"
     bordercolor="#666666"
     borderopacity="1.0"
     inkscape:showpageshadow="2"
     inkscape:pageopacity="0.0"
     inkscape:pagecheckerboard="true"
     inkscape:deskcolor="#d1d1d1"
     inkscape:document-units="mm"
     showgrid="false"
     showguides="true"
     inkscape:zoom="8.5359935"
     inkscape:cx="60.859934"
     inkscape:cy="44.517372"
     inkscape:window-width="3440"
     inkscape:window-height="1394"
     inkscape:window-x="3440"
     inkscape:window-y="25"
     inkscape:window-maximized="1"
     inkscape:current-layer="layer1"><sodipodi:guide
       position="4.8208694,5.8434781"
       orientation="0,-1"
       id="guide25395"
       inkscape:locked="false" /><sodipodi:guide
       position="5.8852172,7.6799998"
       orientation="1,0"
       id="guide25401"
       inkscape:locked="false" /><sodipodi:guide
       position="7.3878261,18.469565"
       orientation="0,-1"
       id="guide1271"
       inkscape:locked="false" /></sodipodi:namedview><defs
     id="defs23549" /><g
     inkscape:label="Calque 1"
     inkscape:groupmode="layer"
     id="layer1"><g
       id="g25154"
       transform="translate(-0.14118356,1.1527786)"
       style="stroke-width:2;stroke-dasharray:none" /><g
       id="g2497"><rect
         style="fill:#ffffff;fill-opacity:0.96;stroke:none;stroke-width:1;stroke-linecap:square;stroke-linejoin:round;stroke-miterlimit:10;stroke-dasharray:none;paint-order:stroke markers fill"
         id="rect2439"
         width="13.52704"
         height="16.173033"
         x="6.2747927"
         y="4.0476937" /><g
         id="g2282"
         transform="matrix(0.02358349,0,0,0.02358349,4.8541464,0.31740445)"><path
           d="m 10,108.7 c 6.4,-0.4 12.7,-1.1 19.1,-1.1 204.5,-0.1 409,0 613.5,0 6.9,0 13.7,0 21.7,0 0,44.1 0,86 0,129.4 -20.9,0 -41.5,0 -64.2,0 0,-20.6 0,-40.8 0,-62.3 -175.5,0 -348.8,0 -523.4,0 0,216.7 0,433 0,651 173.5,0 346.9,0 522.9,0 0,-20.8 0,-41.4 0,-63.1 22.7,0 42.9,0 64.4,0 0,43 0,85.3 0,128.8 -6.4,0.4 -12,1 -17.6,1 -207,0.1 -414.1,0.1 -621.2,0 -5.1,0 -10.1,-0.7 -15.2,-1.1 0,-260.9 0,-521.7 0,-782.6 z"
           id="path2278" /><path
           d="m 990,502.3 c -84.3,74.7 -169.7,150.4 -258.3,229 0,-42.8 0,-82.3 0,-125.4 -50.4,-7.9 -98.6,-17 -147.2,-22.8 -79.1,-9.5 -158.3,-8.8 -236.1,10.5 -76.4,19 -140.3,56.8 -180,128.9 -0.7,-39.1 10,-75.1 25.6,-109.7 47,-103.5 130.2,-166.2 233.9,-205 85.3,-31.9 174.2,-43.7 264.7,-46.1 11.5,-0.3 22.9,0 36.9,0 0,-40.4 0,-79.6 0,-117.5 86.9,86 173.1,171.4 260.5,258.1 z"
           id="path2280"
           style="stroke-width:42.40254518;stroke-dasharray:none;stroke:#ffffff;paint-order:stroke markers fill" /></g></g><text
       xml:space="preserve"
       style="font-style:normal;font-variant:normal;font-weight:normal;font-stretch:normal;font-size:32.7915px;line-height:125%;font-family:'Halloween Dreams Script';-inkscape-font-specification:'Halloween Dreams Script';letter-spacing:0px;word-spacing:0px;fill:#800000;fill-opacity:1;stroke:#ffffff;stroke-width:1;stroke-linecap:butt;stroke-linejoin:miter;stroke-dasharray:none;stroke-opacity:1"
       x="-0.6252929"
       y="21.763725"
       id="text2113"><tspan
         sodipodi:role="line"
         id="tspan2111"
         x="-0.6252929"
         y="21.763725"
         style="font-style:normal;font-variant:normal;font-weight:bold;font-stretch:normal;font-family:'Tlwg Typewriter';-inkscape-font-specification:'Tlwg Typewriter Bold';fill:#800000;stroke:#ffffff;stroke-width:1;stroke-dasharray:none" /></text></g></svg>
