<?xml version="1.0" encoding="UTF-8" standalone="no"?>
<!-- Created with Inkscape (http://www.inkscape.org/) -->

<svg
   width="32mm"
   height="24mm"
   viewBox="0 0 32 24"
   version="1.1"
   id="svg23552"
   inkscape:version="1.2.1 (9c6d41e, 2022-07-14)"
   sodipodi:docname="import.svg"
   inkscape:export-filename="export.png"
   inkscape:export-xdpi="67.73333"
   inkscape:export-ydpi="67.73333"
   xml:space="preserve"
   xmlns:inkscape="http://www.inkscape.org/namespaces/inkscape"
   xmlns:sodipodi="http://sodipodi.sourceforge.net/DTD/sodipodi-0.dtd"
   xmlns="http://www.w3.org/2000/svg"
   xmlns:svg="http://www.w3.org/2000/svg"><sodipodi:namedview
     id="namedview23554"
     pagecolor="#ffffff"
     bordercolor="#666666"
     borderopacity="1.0"
     inkscape:showpageshadow="2"
     inkscape:pageopacity="0.0"
     inkscape:pagecheckerboard="true"
     inkscape:deskcolor="#d1d1d1"
     inkscape:document-units="mm"
     showgrid="false"
     showguides="true"
     inkscape:zoom="11.921118"
     inkscape:cx="93.908978"
     inkscape:cy="46.556036"
     inkscape:window-width="3440"
     inkscape:window-height="1394"
     inkscape:window-x="3440"
     inkscape:window-y="25"
     inkscape:window-maximized="1"
     inkscape:current-layer="layer1"><sodipodi:guide
       position="4.8208694,5.8434781"
       orientation="0,-1"
       id="guide25395"
       inkscape:locked="false" /><sodipodi:guide
       position="5.8852172,7.6799998"
       orientation="1,0"
       id="guide25401"
       inkscape:locked="false" /><sodipodi:guide
       position="7.3878261,18.469565"
       orientation="0,-1"
       id="guide1271"
       inkscape:locked="false" /><sodipodi:guide
       position="14.426429,21.159103"
       orientation="0,-1"
       id="guide4283"
       inkscape:locked="false" /><sodipodi:guide
       position="20.130417,2.6710788"
       orientation="0,-1"
       id="guide4285"
       inkscape:locked="false" /></sodipodi:namedview><defs
     id="defs23549" /><g
     inkscape:label="Calque 1"
     inkscape:groupmode="layer"
     id="layer1"><rect
       style="fill:#ffffff;fill-opacity:0.96;stroke:none;stroke-width:1;stroke-linecap:square;stroke-linejoin:round;stroke-miterlimit:10;stroke-dasharray:none;paint-order:stroke markers fill"
       id="rect4287"
       width="13.52704"
       height="16.173033"
       x="5.5993137"
       y="4.1062102" /><g
       id="g25154"
       transform="translate(-0.14118356,1.1527786)"
       style="stroke-width:2;stroke-dasharray:none" /><text
       xml:space="preserve"
       style="font-style:normal;font-variant:normal;font-weight:normal;font-stretch:normal;font-size:32.7915px;line-height:125%;font-family:'Halloween Dreams Script';-inkscape-font-specification:'Halloween Dreams Script';letter-spacing:0px;word-spacing:0px;fill:#800000;fill-opacity:1;stroke:#ffffff;stroke-width:1;stroke-linecap:butt;stroke-linejoin:miter;stroke-dasharray:none;stroke-opacity:1"
       x="-0.6252929"
       y="21.763725"
       id="text2113"><tspan
         sodipodi:role="line"
         id="tspan2111"
         x="-0.6252929"
         y="21.763725"
         style="font-style:normal;font-variant:normal;font-weight:bold;font-stretch:normal;font-family:'Tlwg Typewriter';-inkscape-font-specification:'Tlwg Typewriter Bold';fill:#800000;stroke:#ffffff;stroke-width:1;stroke-dasharray:none" /></text><path
       d="m 14.260817,6.1455104 c 0,0.8324556 0,1.7427327 0,2.6365023 1.148458,0.087255 2.261543,0.1273444 3.358121,0.2664801 2.539815,0.3230776 4.942852,1.0376212 6.956781,2.7096072 1.664911,1.384282 2.650652,3.16003 2.935998,5.313095 0.01415,0.103762 0.01179,0.207524 0.02122,0.38675 -0.264122,-0.382034 -0.464572,-0.723977 -0.712186,-1.028189 -1.018756,-1.247504 -2.391246,-1.877152 -3.931171,-2.195513 -2.905341,-0.598991 -5.763517,-0.238182 -8.647633,0.410332 0,0.957442 0,1.87951 0,2.921848 -2.091751,-1.851211 -4.100964,-3.629317 -6.086594,-5.388558 2.044586,-2.018645 4.079739,-4.0278582 6.10546,-6.0323546 z"
       id="path4124"
       style="fill:#800000;stroke:#ffffff;stroke-width:2;stroke-dasharray:none;paint-order:stroke markers fill" /><path
       d="m 4.422277,2.9005846 c 0.148569,-0.00943 0.299495,-0.025941 0.448064,-0.025941 4.810791,-0.00236 9.623941,0 14.434732,0 0.16036,0 0.323078,0 0.509378,0 0,1.0376217 0,2.0233622 0,3.0444762 -0.490512,0 -0.976308,0 -1.511626,0 0,-0.4857955 0,-0.9598 0,-1.4644614 -4.129263,0 -8.209002,0 -12.314683,0 0,5.0984954 0,10.1899166 0,15.3167106 4.084457,0 8.164196,0 12.302892,0 0,-0.488154 0,-0.976308 0,-1.485685 0.535318,0 1.009322,0 1.516342,0 0,1.011681 0,2.009212 0,3.032685 -0.150927,0.0094 -0.282988,0.02358 -0.415049,0.02358 -4.872105,0.0024 -9.74421,0.0024 -14.616315,0 -0.12027,0 -0.238182,-0.01651 -0.358451,-0.02594 0.0047,-6.138475 0.0047,-12.2769506 0.0047,-18.4154258 z"
       id="path4122"
       style="fill:#800000;stroke-width:0.0235823" /></g></svg>
